Coordinates
version=1
nRows=5
nColumns=63
inDegrees=yes

Units are S.I. units (second, meters, Newtons, ...)
If the header above contains a line with 'inDegrees', this indicates whether rotational values are in degrees (yes) or radians (no).

endheader
time	pelvis_tilt	pelvis_list	pelvis_rotation	pelvis_tx	pelvis_ty	pelvis_tz	hip_flexion_r	hip_adduction_r	hip_rotation_r	knee_angle_r	knee_angle_r_beta	ankle_angle_r	subtalar_angle_r	mtp_angle_r	hip_flexion_l	hip_adduction_l	hip_rotation_l	knee_angle_l	knee_angle_l_beta	ankle_angle_l	subtalar_angle_l	mtp_angle_l	L5_S1_Flex_Ext	L5_S1_Lat_Bending	L5_S1_axial_rotation	L4_L5_Flex_Ext	L4_L5_Lat_Bending	L4_L5_axial_rotation	L3_L4_Flex_Ext	L3_L4_Lat_Bending	L3_L4_axial_rotation	L2_L3_Flex_Ext	L2_L3_Lat_Bending	L2_L3_axial_rotation	L1_L2_Flex_Ext	L1_L2_Lat_Bending	L1_L2_axial_rotation	L1_T12_Flex_Ext	L1_T12_Lat_Bending	L1_T12_axial_rotation	Abs_r3	Abs_r2	Abs_r1	Abs_t1	Abs_t2	neck_flexion	neck_bending	neck_rotation	arm_flex_r	arm_add_r	arm_rot_r	elbow_flex_r	pro_sup_r	wrist_flex_r	wrist_dev_r	arm_flex_l	arm_add_l	arm_rot_l	elbow_flex_l	pro_sup_l	wrist_flex_l	wrist_dev_l
      1.50000000	     -5.03134401	     -7.67300676	     92.31528752	      0.20051221	      0.73116682	      0.77593384	     13.35531464	     -4.50599532	      1.32191611	     18.03433792	      0.31475858	     34.14514105	     -4.73762957	      0.00000000	      8.28895319	      6.56031316	     10.51717933	      4.58532343	      0.08002899	     29.36217799	     -9.99647261	      0.00000000	     -0.11144360	     -1.09462245	      0.93988638	     -0.20696190	     -1.45584786	      0.99862928	     -0.18309069	     -2.66146503	      0.99862928	     -0.12736889	     -2.66146503	      0.82240058	     -0.10348652	     -2.23215411	      0.76365768	     -0.06367887	     -1.69557018	      0.70491478	     -0.79603047	    -12.38258811	      5.22736606	      0.00000000	      0.00000000	      3.22713220	      1.30274090	     -7.17078231	     17.35484300	    -11.27295265	     -8.79305681	    127.16389605	     85.87863613	     -3.35238803	     14.77035830	    -13.99668889	    -24.14450692	      9.48072579	     83.37026654	     88.71991879	     -6.21590162	      5.37752067
      1.51666667	     -4.65794961	     -7.39008873	     92.14837877	      0.19977045	      0.73103016	      0.77647758	     13.14877359	     -4.10165305	      1.65318010	     18.00729715	      0.31428662	     33.90963267	     -4.98273115	      0.00000000	      8.23081084	      6.19543401	      8.92742365	      5.12453743	      0.08944005	     29.80327914	     -8.90684924	      0.00000000	     -0.13926666	     -1.03871341	      0.84741772	     -0.25863212	     -1.38148884	      0.90038133	     -0.22880120	     -2.52552779	      0.90038133	     -0.15916787	     -2.52552779	      0.74149050	     -0.12932302	     -2.11814439	      0.68852690	     -0.07957697	     -1.60896708	      0.63556329	     -0.99476783	    -11.75013386	      4.71308313	      0.00000000	      0.00000000	      3.57575325	      0.55229087	     -5.89703148	     17.19825625	    -13.06719316	     -8.96193600	    125.83581481	     85.68459477	     -6.78092240	      9.87671794	    -14.56898169	    -22.89639173	      7.62375308	     83.88115265	     88.59179395	     -5.38197494	      5.89145423
      1.53333333	     -4.16331300	     -7.10020186	     92.06371883	      0.19871426	      0.73111172	      0.77734341	     12.90902234	     -3.62385870	      1.75586048	     17.91987245	      0.31276078	     33.53116219	     -5.07966646	      0.00000000	      8.21045185	      5.71136577	      7.31482485	      5.75329801	      0.10041399	     30.08500537	     -7.84636052	      0.00000000	     -0.15414082	     -0.97599030	      0.69077609	     -0.28625492	     -1.29806710	      0.73394959	     -0.25323795	     -2.37302282	      0.73394959	     -0.17616754	     -2.37302282	      0.60442908	     -0.14313517	     -1.99023942	      0.56125557	     -0.08807606	     -1.51180898	      0.51808207	     -1.10101246	    -11.04059747	      3.84188938	      0.00000000	      0.00000000	      3.60949490	      0.22965622	     -4.76270721	     16.78211535	    -16.16574839	     -8.69224797	    122.62485871	     87.45364457	     -7.36544658	      7.16113308	    -15.35809610	    -21.76713871	      5.76604655	     84.60331090	     88.49084622	     -4.65848766	      7.11637592
      1.55000000	     -3.63553922	     -6.89450744	     92.00181379	      0.19766108	      0.73133832	      0.77827143	     12.69425667	     -3.13306179	      1.74338973	     17.70429365	      0.30899822	     33.15058021	     -4.98752940	      0.00000000	      8.21229544	      5.19781031	      6.22414467	      6.25087690	      0.10909838	     29.98787632	     -7.52410336	      0.00000000	     -0.15153771	     -0.92553806	      0.55658447	     -0.28142068	     -1.23096562	      0.59137100	     -0.24896131	     -2.25035324	      0.59137100	     -0.17319245	     -2.25035324	      0.48701141	     -0.14071792	     -1.88735722	      0.45222489	     -0.08658865	     -1.43365846	      0.41743836	     -1.08241872	    -10.46987166	      3.09555587	      0.00000000	      0.00000000	      3.42479524	      0.59726911	     -4.36051778	     15.60886963	    -20.68436940	     -8.17938446	    119.15601568	     88.54971288	     -5.49876698	      7.90452064	    -16.19048888	    -20.95131849	      4.36832287	     85.61164379	     88.49250904	     -4.59256145	      8.54619977
      1.56666667	     -3.33130060	     -6.75851286	     92.40837084	      0.19665168	      0.73180639	      0.77917905	     12.46543173	     -2.94254802	      1.27727792	     17.48399817	      0.30515333	     32.97909521	     -4.86417560	      0.00000000	      8.24528639	      4.89233415	      5.04251505	      6.61385358	      0.11543352	     29.79002450	     -6.25813820	      0.00000000	     -0.14649054	     -0.92418065	      0.33021831	     -0.27204758	     -1.22916026	      0.35085696	     -0.24066930	     -2.24705282	      0.35085696	     -0.16742403	     -2.24705282	      0.28894102	     -0.13603111	     -1.88458917	      0.26830238	     -0.08370469	     -1.43155582	      0.24766373	     -1.04636725	    -10.45451631	      1.83657518	      0.00000000	      0.00000000	      3.13691416	      1.85644838	     -4.51993678	     14.37316129	    -26.03013628	     -7.97695560	    116.61131075	     89.02975296	      2.43065431	     15.03828014	    -17.30401289	    -20.77018327	      2.95605351	     87.10915527	     88.51367917	     -3.91494663	     10.08602817
